Coordinates
version=1
nRows=32
nColumns=22
inDegrees=yes

Units are S.I. units (second, meters, Newtons, ...)
If the header above contains a line with 'inDegrees', this indicates whether rotational values are in degrees (yes) or radians (no).

endheader
time	pelvis_tilt	pelvis_list	pelvis_rotation	pelvis_tx	pelvis_ty	pelvis_tz	hip_flexion_r	hip_adduction_r	hip_rotation_r	knee_angle_r	ankle_angle_r	subtalar_angle_r	hip_flexion_l	hip_adduction_l	hip_rotation_l	knee_angle_l	ankle_angle_l	subtalar_angle_l	lumbar_extension	lumbar_bending	lumbar_rotation
      3.96000000	     -2.36912620	      8.39761419	    -91.89840332	      0.30133784	      0.97847850	      1.14842065	     19.94371748	      2.94972658	     -3.65459739	    -54.74341709	     11.18921499	      5.64812499	     29.19148916	      0.26492495	     -0.09508024	    -27.08724735	     12.32214381	     -1.69473371	      1.97656244	      2.87578504	      4.49117436
      3.97000000	     -2.13001646	      8.32431086	    -92.05637632	      0.30257124	      0.97912962	      1.15285654	     20.65148208	      2.42420992	     -3.71212359	    -55.38651694	     11.68403295	      4.50183548	     28.67548017	      0.55871538	     -0.24136907	    -26.82936492	     12.52516062	     -1.86355910	      1.85573424	      2.63106958	      4.22615088
      3.98000000	     -1.94552363	      8.27727749	    -92.20774167	      0.30370630	      0.97979139	      1.15710613	     21.34063599	      1.96735990	     -3.78034632	    -55.80008211	     12.24119050	      3.31755157	     28.19611516	      0.79061320	     -0.37966995	    -26.56175300	     12.71655315	     -2.01456715	      1.75764269	      2.44818144	      3.97539137
      3.99000000	     -1.81641584	      8.24800692	    -92.34706299	      0.30473864	      0.98046627	      1.16116519	     22.00095039	      1.59072032	     -3.84556582	    -55.99134575	     12.84252466	      2.17346637	     27.74598354	      0.96458574	     -0.48192254	    -26.29112234	     12.88532365	     -2.14735028	      1.67044958	      2.32228471	      3.74503313
      4.00000000	     -1.72403312	      8.23243290	    -92.46619962	      0.30571174	      0.98115687	      1.16507074	     22.62393249	      1.26686748	     -3.92324954	    -55.96823684	     13.45956990	      1.16072363	     27.31844988	      1.10031004	     -0.58078242	    -26.01348951	     13.03152613	     -2.25947913	      1.59131726	      2.23500368	      3.51919326
      4.01000000	     -1.65425347	      8.22578976	    -92.57012279	      0.30662759	      0.98185877	      1.16884349	     23.20591162	      0.98513518	     -4.00271021	    -55.74647171	     14.06524537	      0.30006319	     26.89899297	      1.21216084	     -0.67140473	    -25.71474665	     13.16445190	     -2.35357023	      1.51718685	      2.16850992	      3.30308997
      4.02000000	     -1.58264820	      8.22520370	    -92.65388763	      0.30750613	      0.98255534	      1.17249596	     23.74782544	      0.71494631	     -4.08892711	    -55.35005664	     14.66783668	     -0.32632684	     26.48399948	      1.32847859	     -0.75367587	    -25.39351445	     13.26826378	     -2.41654735	      1.44717699	      2.09427924	      3.06698146
      4.03000000	     -1.54594196	      8.21920362	    -92.71872420	      0.30833511	      0.98325686	      1.17605002	     24.22366486	      0.49932126	     -4.19774144	    -54.76958212	     15.23303664	     -0.94969644	     26.06466821	      1.40804088	     -0.83675383	    -25.06297125	     13.38949605	     -2.47992125	      1.36378980	      2.05384522	      2.86424647
      4.04000000	     -1.51505185	      8.21853281	    -92.77016852	      0.30910377	      0.98393833	      1.17951664	     24.64928244	      0.30951302	     -4.31643010	    -54.02656064	     15.75536996	     -1.45290428	     25.65016066	      1.47885659	     -0.91651086	    -24.72025700	     13.50366120	     -2.52107625	      1.28707731	      2.01112921	      2.67250875
      4.05000000	     -1.48023702	      8.21654830	    -92.80668787	      0.30983184	      0.98459567	      1.18287521	     25.02675793	      0.13416372	     -4.44368867	    -53.14974351	     16.22065349	     -1.92815049	     25.22842910	      1.55341263	     -0.99882762	    -24.34906488	     13.60506317	     -2.54820585	      1.20244259	      1.95797111	      2.49572494
      4.06000000	     -1.43826066	      8.22361561	    -92.82772026	      0.31052128	      0.98521125	      1.18612540	     25.36665242	     -0.02874772	     -4.57504506	    -52.15302876	     16.62097964	     -2.36137972	     24.81380295	      1.63185923	     -1.09600485	    -23.95633450	     13.69382717	     -2.55805028	      1.12332448	      1.88877027	      2.33157848
      4.07000000	     -1.38303591	      8.23954208	    -92.83130210	      0.31118476	      0.98577811	      1.18926960	     25.67167788	     -0.18710458	     -4.70734615	    -51.05601919	     16.96898840	     -2.76269982	     24.40699803	      1.72146595	     -1.21424012	    -23.54056667	     13.76647834	     -2.55288452	      1.05163346	      1.79880078	      2.17780733
      4.08000000	     -1.31453607	      8.27913861	    -92.81326470	      0.31184299	      0.98625480	      1.19230020	     25.96274510	     -0.35012655	     -4.85440426	    -49.88337870	     17.31315684	     -3.05073655	     24.03635374	      1.82347724	     -1.35623856	    -23.12480205	     13.82638458	     -2.53667484	      1.00626081	      1.68991081	      2.03232396
      4.09000000	     -1.24321080	      8.30248299	    -92.79272982	      0.31242670	      0.98674149	      1.19525029	     26.18595733	     -0.48077884	     -4.95763964	    -48.62301469	     17.57384177	     -3.35577560	     23.64213807	      1.92505332	     -1.49319732	    -22.68458253	     13.87395207	     -2.51248462	      0.93955110	      1.56986894	      1.88482086
      4.10000000	     -1.17972984	      8.34342213	    -92.75075651	      0.31299512	      0.98713713	      1.19811813	     26.38670534	     -0.59731853	     -5.07888664	    -47.31201609	     17.84660517	     -3.54610725	     23.29093709	      2.02061158	     -1.62978399	    -22.27509498	     13.92401031	     -2.48906301	      0.89596676	      1.45662810	      1.76587135
      4.11000000	     -1.12875434	      8.37659019	    -92.71005375	      0.31349074	      0.98750080	      1.20094399	     26.53413736	     -0.67678609	     -5.17512678	    -45.95255744	     18.09653759	     -3.67174518	     22.94718384	      2.10214844	     -1.74250648	    -21.89297350	     13.98288796	     -2.46747984	      0.85078919	      1.35486261	      1.66426337
      4.12000000	     -1.09065739	      8.40402310	    -92.65952170	      0.31392614	      0.98782181	      1.20372200	     26.63532878	     -0.72316001	     -5.25114469	    -44.56768794	     18.34475288	     -3.73410827	     22.61904182	      2.17182373	     -1.83276770	    -21.54488838	     14.05578901	     -2.44988627	      0.80507318	      1.26387111	      1.58395294
      4.13000000	     -1.06269163	      8.42698702	    -92.60667789	      0.31428892	      0.98810039	      1.20646663	     26.69629331	     -0.73888094	     -5.30166041	    -43.17689957	     18.60132124	     -3.74164217	     22.30649117	      2.23003296	     -1.90008596	    -21.23207438	     14.14322444	     -2.43567799	      0.76380766	      1.18119979	      1.52345921
      4.14000000	     -1.04111129	      8.45077755	    -92.55257901	      0.31458145	      0.98832791	      1.20918915	     26.72867865	     -0.72668712	     -5.31742031	    -41.80304732	     18.88029002	     -3.70867039	     22.01393764	      2.28039412	     -1.94234150	    -20.95489902	     14.24210096	     -2.42293516	      0.73897859	      1.10465969	      1.48321958
      4.15000000	     -1.02257780	      8.46761968	    -92.49195340	      0.31480708	      0.98852263	      1.21187885	     26.72797523	     -0.69259394	     -5.29496784	    -40.46168403	     19.17423644	     -3.64332285	     21.73236173	      2.32670314	     -1.96746421	    -20.70813971	     14.35538395	     -2.40887503	      0.71654531	      1.02849569	      1.45942112
      4.16000000	     -1.00261470	      8.49420428	    -92.43326453	      0.31494985	      0.98865505	      1.21453291	     26.72095873	     -0.63938746	     -5.22965928	    -39.17630029	     19.48735952	     -3.56019327	     21.47883427	      2.36951057	     -1.98039865	    -20.49130004	     14.47694564	     -2.39213705	      0.71923707	      0.94748445	      1.45638264
      4.17000000	     -0.96702905	      8.58263833	    -92.37365915	      0.31502005	      0.98862795	      1.21709443	     26.78011925	     -0.57888217	     -5.10518525	    -37.97842675	     19.80397144	     -3.52042590	     21.31774724	      2.42497453	     -1.96309932	    -20.31212356	     14.58605484	     -2.38009170	      0.80624216	      0.84681372	      1.47954344
      4.18000000	     -0.95688415	      8.56728431	    -92.32065726	      0.31501785	      0.98874815	      1.21969489	     26.69458793	     -0.48254504	     -4.95580842	    -36.82813077	     20.11102881	     -3.37165368	     21.05236921	      2.44272153	     -2.01188968	    -20.15189521	     14.75524301	     -2.34745897	      0.78151442	      0.77692824	      1.50829154
      4.19000000	     -0.91682280	      8.60373821	    -92.27330411	      0.31495978	      0.98873375	      1.22219214	     26.67073998	     -0.39309173	     -4.72386883	    -35.78331992	     20.36689473	     -3.25513918	     20.86094656	      2.48996723	     -2.02461424	    -20.01328757	     14.89400381	     -2.31797384	      0.82753581	      0.67131501	      1.56630206
      4.20000000	     -0.87203050	      8.63767581	    -92.23223616	      0.31482772	      0.98868174	      1.22463694	     26.63736331	     -0.28986661	     -4.43383401	    -34.83204180	     20.53276225	     -3.14664196	     20.68260058	      2.53485481	     -2.04142701	    -19.89834969	     15.03852032	     -2.29293985	      0.87910547	      0.55698357	      1.63661435
      4.21000000	     -0.81664371	      8.66534289	    -92.19911368	      0.31469489	      0.98860081	      1.22703346	     26.58912610	     -0.18642340	     -4.08271362	    -33.97159904	     20.58461443	     -3.05996655	     20.50920132	      2.59123575	     -2.05597846	    -19.80065902	     15.18025971	     -2.27793975	      0.93161087	      0.44439262	      1.72398205
      4.22000000	     -0.74924795	      8.68328483	    -92.16659372	      0.31453034	      0.98849558	      1.22937990	     26.52480935	     -0.08905448	     -3.69243114	    -33.20938181	     20.48764788	     -3.01361763	     20.33845940	      2.65849516	     -2.06867641	    -19.72100667	     15.31673301	     -2.27681748	      0.97935500	      0.31839762	      1.81623468
      4.23000000	     -0.67090955	      8.68913347	    -92.13754962	      0.31435079	      0.98837104	      1.23168218	     26.44179038	     -0.00049248	     -3.27232345	    -32.54521451	     20.22927214	     -3.03892409	     20.16670715	      2.73664992	     -2.08129570	    -19.65828264	     15.45055348	     -2.28950328	      1.01895822	      0.18703439	      1.91846700
      4.24000000	     -0.58297188	      8.68561812	    -92.11145263	      0.31414808	      0.98822775	      1.23394784	     26.34303929	      0.07667573	     -2.84086183	    -31.97832343	     19.80044978	     -3.18001273	     19.99541094	      2.82331880	     -2.09561148	    -19.61106728	     15.58135490	     -2.31325582	      1.05402814	      0.04907284	      2.02929952
      4.25000000	     -0.48098560	      8.66470492	    -92.08273441	      0.31394006	      0.98807811	      1.23618602	     26.22066624	      0.12960776	     -2.42649318	    -31.50970816	     19.23262238	     -3.56788587	     19.80738692	      2.93048911	     -2.07507979	    -19.56421545	     15.73424328	     -2.34383390	      1.07410557	     -0.10082915	      2.15173250
      4.26000000	     -0.37734991	      8.66581473	    -92.04892804	      0.31371972	      0.98787693	      1.23836943	     26.11912237	      0.16538439	     -2.05392444	    -31.13732629	     18.52379535	     -3.97079728	     19.66685916	      3.03342108	     -2.09203489	    -19.55250313	     15.83699112	     -2.36877668	      1.12426536	     -0.24578058	      2.25292495
      4.27000000	     -0.25155565	      8.65110354	    -91.99626304	      0.31355299	      0.98766939	      1.24053662	     25.99978216	      0.14344834	     -1.77722201	    -30.86493575	     17.78724408	     -4.64708171	     19.50262699	      3.17696762	     -2.03791417	    -19.52364810	     15.99918552	     -2.38724043	      1.16106664	     -0.40902674	      2.35140310
